<svg id="Layer_1" data-name="Layer 1" xmlns="http://www.w3.org/2000/svg" viewBox="0 0 439.95 500"><defs><style>.cls-1{fill:#2967b2;}.cls-2{fill:#fdfefe;}</style></defs><path class="cls-1" d="M439.9,250.09q0,106.35.05,212.7c0,10.94-3.45,20.47-11,28a30.53,30.53,0,0,1-22.44,9.05q-128.39-.21-256.76-.08c-38.34,0-76.69-.45-115,.19-19,.31-32.77-15.19-34.47-31.86a52.56,52.56,0,0,1-.2-5.32Q0,249.91,0,37C0,21.5,6.62,9.78,20.29,2.52,23.74.69,28.21.12,32.22.12q188-.18,375.89-.12c13.76,0,26,11,29.79,23.73a51.9,51.9,0,0,1,1.92,14.48Q440,144.16,439.9,250.09ZM374.37,425.85v-3.4q.58-64.14.42-128.26c-.09-23.07-1.18-46.08-9-68.17C358.52,205.58,345,190.79,324,185.15c-18.54-5-37.74-6.77-55.89,2.56a105.15,105.15,0,0,0-16.05,10.19c-3.36,2.57-6,6.16-8.64,9.54-3.18,4.08-6,8.42-9.35,13.11-.08-1.78-.2-3.09-.2-4.4,0-8.2-.15-16.4.06-24.59.08-3.1-.86-3.91-3.93-3.89-17.93.14-35.87.19-53.81,0-3.81-.05-4.74,1-4.74,4.75q.17,114.12,0,228.25v4.2h65v-4.63c.25-39.34,0-78.68.41-118a130.27,130.27,0,0,1,3.6-28.68c2.83-11.82,9.36-21.55,22.08-24.87,6.5-1.7,12.89-3.11,20.15-1.51,11.57,2.55,18.48,9.15,22.35,19.65,4.12,11.18,4.7,22.95,4.74,34.68q.21,59.41-.36,118.84v5.54Zm-244-1c.09-1.1.19-1.77.19-2.44q0-115.77.07-231.53c0-2.91-.93-3.66-3.74-3.64-19,.11-38.06.17-57.09,0-3.78,0-4.44,1.11-4.44,4.59q.15,114.33.08,228.66v4.4ZM59.78,114.56c1.14,4.2,2.17,11,4.85,17.17C69.84,143.63,79,151.52,92,154.2c7.25,1.5,14,.17,20.82-3.2,8.8-4.36,14.59-11.05,18.48-19.69,6.15-13.64,5.86-27.37-.75-40.64C125,79.36,115.86,71.84,103.15,69.33c-7.67-1.51-14.75.23-21.47,4C66.65,81.93,61,95.64,59.78,114.56Z" transform="translate(0 0)"/><path class="cls-2" d="M374.37,424.85h-65v-4.54q.62-59.43.36-118.84c0-11.73-.62-23.5-4.74-34.68-3.87-10.5-10.78-17.1-22.35-19.65-7.26-1.6-13.65-.19-20.15,1.51-12.72,3.32-19.25,13-22.08,24.87a130.27,130.27,0,0,0-3.6,28.68c-.39,39.34-.16,78.68-.41,118v5.63h-65v-5.2q.13-114.12,0-228.25c0-3.74.93-4.8,4.74-4.75,17.94.21,35.88.16,53.81,0,3.07,0,4,.79,3.93,3.89-.21,8.19-.07,16.39-.06,24.59,0,1.31.12,2.62.2,4.4,3.32-4.69,6.17-9,9.35-13.11,2.64-3.38,5.28-7,8.64-9.54a105.15,105.15,0,0,1,16.05-10.19c18.15-9.33,37.35-7.53,55.89-2.56,21,5.64,34.52,20.43,41.77,40.87,7.84,22.09,8.93,45.1,9,68.17q.25,64.13-.42,128.26Z" transform="translate(0 0)"/><path class="cls-2" d="M130.41,424.85H65.48v-4.4q0-114.33-.08-228.66c0-3.48.66-4.64,4.44-4.59,19,.21,38.06.15,57.09,0,2.81,0,3.74.73,3.74,3.64q-.1,115.76-.07,231.53C130.6,423.08,130.5,423.75,130.41,424.85Z" transform="translate(0 0)"/><path class="cls-2" d="M59.78,114.56C61,95.64,66.65,81.93,81.68,73.38c6.72-3.82,13.8-5.56,21.47-4,12.71,2.51,21.8,10,27.43,21.34,6.61,13.27,6.9,27,.75,40.64-3.89,8.64-9.68,15.33-18.48,19.69-6.8,3.37-13.57,4.7-20.82,3.2-13-2.68-22.19-10.57-27.4-22.47C62,125.61,60.92,118.76,59.78,114.56Z" transform="translate(0 0)"/></svg>